<?xml version="1.0" standalone="no"?><!DOCTYPE svg PUBLIC "-//W3C//DTD SVG 1.1//EN" "http://www.w3.org/Graphics/SVG/1.1/DTD/svg11.dtd">
<svg t="1701470200371" class="icon" viewBox="0 0 1024 1024" version="1.1" xmlns="http://www.w3.org/2000/svg" p-id="7845"
     width="200" height="200"><path d="M165.71 392.88V193.32c0-31.75 25.74-57.48 57.48-57.48h594.37c31.75 0 57.48 25.74 57.48 57.48v650.84c0 31.75-25.74 57.48-57.48 57.48H222.18c-31.75 0-57.48-25.74-57.48-57.48V543.3" fill="#FFC963" p-id="7846"></path><path d="M877 475.22V197.47l-11.92-22.18h-699.1c-0.16 0 0.67-0.45 0.67 1.32V376.16l-1.18 105.59c7.24 1.32 14.5 3.95 22.19 3.95 57.67 0 104.42-42.99 107.5-101.49h0.59c3.08 58.5 50.06 102.14 107.73 102.14s104.66-43.64 107.73-102.14h0.59c3.08 58.5 50.06 102.14 107.73 102.14s104.66-43.64 107.73-102.14h0.59c3.08 58.5 51.03 100.22 108.71 100.22 13.96 0 23.73-4.52 40.44-9.21z" fill="#E2A33D" opacity=".48" p-id="7847"></path><path d="M877 860.57c0-23.08-18.71-41.79-41.79-41.79H208.43c-23.08 0-41.79 18.71-41.79 41.79s18.71 41.79 41.79 41.79h626.79c23.08 0 41.78-18.71 41.78-41.79z" fill="#FFC963" opacity=".39" p-id="7848"></path><path d="M509.07 901.64h-234V546.49a4.2 4.2 0 0 1 4.2-4.2h225.6a4.2 4.2 0 0 1 4.2 4.2v355.15z" fill="#F8F9FB" p-id="7849"></path><path d="M149.71 617.5c-9.23 0-16.71-7.48-16.71-16.71v-58.5c0-9.23 7.48-16.71 16.71-16.71s16.71 7.48 16.71 16.71v58.5c0.01 9.23-7.48 16.71-16.71 16.71zM817.57 918.36H205.46c-40.63 0-72.46-33.04-72.46-75.21V650.93c0-9.23 7.48-16.71 16.71-16.71s16.71 7.48 16.71 16.71v192.21c0 23.43 17.15 41.79 39.04 41.79h612.11c21.15 0 42.5-10.34 42.5-33.43V508.86c0-9.23 7.48-16.71 16.71-16.71s16.71 7.48 16.71 16.71V851.5c0.01 38.74-31.92 66.86-75.92 66.86zM149 396c-9.23 0-16.71-7.48-16.71-16.71V199.35c0-41.31 33.28-74.92 74.19-74.92h611.09c43.45 0 75.92 44.12 75.92 83.57 0 9.23-7.48 16.71-16.71 16.71s-16.71-7.48-16.71-16.71c0-24.83-21.45-50.14-42.5-50.14H206.48c-22.48 0-40.77 18.62-40.77 41.49v179.93c0.01 9.23-7.48 16.72-16.71 16.72z" fill="#5E125C" p-id="7850"></path><path d="M149.71 492.14v-75.21" fill="#E6EDEC" p-id="7851"></path><path d="M149.71 508.86c-9.23 0-16.71-7.48-16.71-16.71v-75.21c0-9.23 7.48-16.71 16.71-16.71s16.71 7.48 16.71 16.71v75.21c0.01 9.22-7.48 16.71-16.71 16.71z" fill="#5E125C" p-id="7852"></path><path d="M943.4 325.19c0.07-1.6 0.24-2.54 0.24-4.16 0-2.04-0.19-3.72-0.31-5.73l-2.72-1.5L865.09 116H158.04c-0.05 0-0.08 0.03-0.09 0.08L80.26 323.69c-0.55 1.31-0.86 2.61-0.86 3.87 0 59.66 48.37 100.86 108.03 100.86 57.67 0 104.66-44.92 107.73-103.42h0.59c3.08 58.5 50.06 102.14 107.73 102.14S508.14 383.5 511.22 325h0.59c3.08 58.5 50.06 102.14 107.73 102.14S724.2 383.5 727.27 325h0.59c3.08 58.5 50.06 102.14 107.73 102.14S940.26 383.5 943.34 325h0.3l-0.24 0.19z" fill="#E2696C" p-id="7853"></path><path d="M943.64 325h-0.23c0 0.07-0.01 0.11-0.01 0.19l0.24-0.19z" fill="#F8F9FB" p-id="7854"></path><path d="M943.33 315.29l-2.72-1.11-75.53-197.4H692.93l33.43 218.16c0.41-3.04 0.76-9.23 0.93-9.23h0.59c3.08 58.5 50.06 102.14 107.73 102.14s104.65-43.64 107.73-102.14h0.07c0.08 0 0.23-2.78 0.23-4.33 0-2.04-0.19-4.07-0.31-6.09zM509.29 116.78H325.21l-33.43 230.94c1.81-7.07 2.98-13.65 3.38-22.01h0.59c3.08 58.5 50.17 101.78 107.84 101.78 52.2 0 97.33-36.16 105.69-86.32V116.78z" fill="#F8F9FB" p-id="7855"></path><path d="M943.4 325.19l0.24-0.19h-0.23c0 0.07-0.01 0.12-0.01 0.19z" fill="#FFFFFF" opacity=".5" p-id="7856"></path><path d="M943.33 315.29l-2.72-1.11-75.53-197.4H158.04c-0.04 0-0.08-0.36-0.09-0.32l-77.7 207.43c-0.55 1.32-0.86 2.51-0.86 3.77 0 18.18 4.54 34.57 12.48 48.68l43.89-117.32c6.52-17.43 18.21-32.11 33.5-42.71 15.29-10.61 33.46-15.94 52.07-15.94H820.8c26.66 0 50.56 16.1 60.08 41.01l49.63 130.15c7.34-13.67 11.94-29.09 12.83-45.8h0.07c0.08 0 0.23-2.78 0.23-4.33 0-2.06-0.19-4.09-0.31-6.11z" fill="#FFFFFF" opacity=".5" p-id="7857"></path><path d="M841.62 442c-48.79 0-91.49-24.98-113.91-62.3-22.01 37.32-63.9 62.3-111.73 62.3-45.57 0-83.79-22.94-104.46-59.05C490.84 419.06 452.63 442 407.05 442c-47.83 0-89.72-24.98-111.73-62.3-22.41 37.32-65.12 62.3-113.91 62.3-69.91 0-118.73-47.06-118.73-114.45 0-3.38 0.72-6.83 2.13-10.26l57.18-152.81c7.18-19.23 19.91-35.59 36.81-47.3 16.87-11.7 36.65-17.9 57.21-17.9h604.58c33.51 0 64.05 21.03 75.99 52.33l57.68 151.02c3.42 2.94 5.53 7.18 5.78 11.78l0.11 1.65c0.12 1.62 0.22 3.18 0.22 4.96 0 1.28-0.06 2.29-0.14 3.31 0.07 1.45-0.05 2.91-0.35 4.31C955.12 395.53 906.85 442 841.62 442zM727.29 308.29c8.89 0 16.81 6.95 17.28 15.83 2.5 47.36 45.13 84.45 97.06 84.45 48.19 0 82.36-33.93 85.03-84.45 0.02-0.34 0.04-0.68 0.08-1.01-0.69-1.04-1.28-2.16-1.73-3.35l-59.66-156.22c-7.04-18.44-25.03-30.83-44.76-30.83H216.01c-13.71 0-26.91 4.13-38.16 11.93-11.26 7.82-19.75 18.73-24.55 31.55L96.12 329c0.65 48.39 33.98 79.57 85.29 79.57 51.94 0 94.57-37.09 97.06-84.45 0.47-8.87 7.8-15.83 16.69-15.83s16.82 6.96 17.29 15.83c2.49 47.36 44.05 84.45 94.61 84.45 48.89 0 84.86-34.73 87.48-84.45 0.47-8.87 7.8-15.83 16.69-15.83s16.82 6.96 17.29 15.83c2.62 49.73 38.59 84.45 87.47 84.45 50.56 0 92.12-37.09 94.61-84.45 0.46-8.88 7.8-15.83 16.69-15.83zM275.07 918.36c-9.23 0-16.71-7.48-16.71-16.71V577.39c0-28.57 23.24-51.82 51.82-51.82h163.8c28.57 0 51.82 23.24 51.82 51.82v240.68c0 9.23-7.48 16.71-16.71 16.71s-16.71-7.48-16.71-16.71V577.39c0-10.14-8.25-18.39-18.39-18.39h-163.8c-10.14 0-18.39 8.25-18.39 18.39v324.26c-0.02 9.22-7.5 16.71-16.73 16.71z" fill="#5E125C" p-id="7858"></path><path d="M743.96 717.79H622.79c-16.58 0-30.15-13.57-30.15-30.15V570.05c0-15.33 12.43-27.76 27.76-27.76h128.34c15.33 0 27.76 12.43 27.76 27.76v115.21c0 17.89-14.64 32.53-32.54 32.53z" fill="#F8F9FB" p-id="7859"></path><path d="M743.97 734.5H622.79c-25.84 0-46.86-21.02-46.86-46.86v-117.6c0-24.52 19.95-44.47 44.47-44.47h128.34c24.52 0 44.47 19.95 44.47 44.47v115.21c0 27.16-22.09 49.25-49.24 49.25zM620.4 559c-6.09 0-11.04 4.95-11.04 11.04v117.6c0 7.41 6.02 13.43 13.43 13.43h121.18c8.72 0 15.82-7.09 15.82-15.82V570.04c0-6.09-4.95-11.04-11.04-11.04H620.4zM333.57 776.29c-9.23 0-16.71-7.48-16.71-16.71v-66.86c0-9.23 7.48-16.71 16.71-16.71s16.71 7.48 16.71 16.71v66.86c0 9.22-7.48 16.71-16.71 16.71z" fill="#5E125C" p-id="7860"></path><path d="M943.64 325h-0.23c0 0.07-0.01 0.11-0.01 0.19l0.24-0.19z" fill="#5E125C" opacity=".2" p-id="7861"></path><path d="M80.25 324.05c-0.55 1.32-0.86 2.43-0.86 3.69 0 59.66 48.37 101.13 108.03 101.13 57.67 0 104.66-44.65 107.73-103.15h0.59c3.08 58.5 50.06 102.14 107.73 102.14s104.66-43.64 107.73-102.14h0.59c3.08 58.5 50.06 102.14 107.73 102.14s104.66-43.64 107.73-102.14h0.59c3.08 58.5 50.06 102.14 107.73 102.14s104.65-43.64 107.73-102.14h0.07c0.08 0 0.23-2.78 0.23-4.33 0-2.04-0.19-3.89-0.31-5.91l-2.72-1.23-5.29-13.6H89.15l-8.9 23.4z" fill="#5E125C" opacity=".1" p-id="7862"></path></svg>