<svg t="1702580250731" class="icon" viewBox="0 0 1024 1024" version="1.1" xmlns="http://www.w3.org/2000/svg" p-id="1578" width="200" height="200"><path d="M778.4448 103.936H251.9552c-77.4144 0-140.1856 62.7712-140.1856 140.1856v541.184c0 77.4144 62.7712 140.1856 140.1856 140.1856h526.4384c77.4144 0 140.1856-62.7712 140.1856-140.1856V244.1216c0.0512-77.4144-62.72-140.1856-140.1344-140.1856zM364.6976 731.4944c-54.6816 0-99.1232-44.4928-99.1232-99.1232 0-54.6816 44.4928-99.1232 99.1232-99.1232s99.1232 44.4928 99.1232 99.1232c0 54.6816-44.4416 99.1232-99.1232 99.1232z m104.2944-369.664L356.2496 479.488c-4.8128 5.0688-11.52 7.8848-18.4832 7.8848h-0.6144c-7.168-0.1536-13.9776-3.3792-18.688-8.8064L259.584 410.9312a25.6 25.6 0 0 1 2.5088-36.096 25.6 25.6 0 0 1 36.096 2.5088l40.448 46.4896 93.3376-97.3824a25.6256 25.6256 0 0 1 36.1984-0.768c10.24 9.728 10.5984 25.9584 0.8192 36.1472z m304.0768 296.1408h-235.3152c-14.1312 0-25.6-11.4688-25.6-25.6s11.4688-25.6 25.6-25.6h235.3152c14.1312 0 25.6 11.4688 25.6 25.6s-11.4688 25.6-25.6 25.6z m0-226.4576h-235.3152c-14.1312 0-25.6-11.4688-25.6-25.6s11.4688-25.6 25.6-25.6h235.3152c14.1312 0 25.6 11.4688 25.6 25.6s-11.4688 25.6-25.6 25.6z" fill="#F5504E" p-id="1579"></path><path d="M364.6976 584.448c-26.4192 0-47.9232 21.504-47.9232 47.9232s21.504 47.9232 47.9232 47.9232 47.9232-21.504 47.9232-47.9232-21.504-47.9232-47.9232-47.9232z" fill="#FF5A5A" p-id="1580"></path><path d="M918.6304 472.1664V244.1216c0-77.4144-62.7712-140.1856-140.1856-140.1856H251.9552c-77.4144 0-140.1856 62.7712-140.1856 140.1856v454.7072c92.5696 85.7088 217.9584 135.9872 353.9968 130.4064 217.7024-8.9088 396.544-158.208 452.864-357.0688z m-380.8768-91.8528h235.3152c14.1312 0 25.6 11.4688 25.6 25.6s-11.4688 25.6-25.6 25.6h-235.3152c-14.1312 0-25.6-11.4688-25.6-25.6s11.4688-25.6 25.6-25.6z m-173.056 351.1808c-54.6816 0-99.1232-44.4928-99.1232-99.1232 0-54.6816 44.4928-99.1232 99.1232-99.1232s99.1232 44.4928 99.1232 99.1232c0 54.6816-44.4416 99.1232-99.1232 99.1232z m104.2944-369.664L356.2496 479.488c-4.8128 5.0688-11.52 7.8848-18.4832 7.8848h-0.6144c-7.168-0.1536-13.9776-3.3792-18.688-8.8064L259.584 410.9312a25.6 25.6 0 0 1 2.5088-36.096 25.6 25.6 0 0 1 36.096 2.5088l40.448 46.4896 93.3376-97.3824a25.6256 25.6256 0 0 1 36.1984-0.768c10.24 9.728 10.5984 25.9584 0.8192 36.1472z m68.7616 296.1408c-14.1312 0-25.6-11.4688-25.6-25.6s11.4688-25.6 25.6-25.6h235.3152c14.1312 0 25.6 11.4688 25.6 25.6s-11.4688 25.6-25.6 25.6h-235.3152z" fill="#FF5A5A" p-id="1581"></path><path d="M364.6976 584.448c-26.4192 0-47.9232 21.504-47.9232 47.9232 0 7.2192 1.6384 13.9776 4.5056 20.1216a506.88 506.88 0 0 0 52.992 0.6656c11.7248-0.4608 23.296-1.3824 34.816-2.6624 2.304-5.5808 3.584-11.7248 3.584-18.1248-0.0512-26.4192-21.5552-47.9232-47.9744-47.9232z" fill="#F66A68" p-id="1582"></path><path d="M251.9552 103.936c-77.4144 0-140.1856 62.7712-140.1856 140.1856v345.6a488.448 488.448 0 0 0 154.8288 56.064c-0.6144-4.4032-1.024-8.8576-1.024-13.4144 0-54.6816 44.4928-99.1232 99.1232-99.1232s99.1232 44.4928 99.1232 99.1232c0 3.0208-0.2048 6.0416-0.4608 9.0112 16.7936-3.7888 33.2288-8.448 49.2544-13.9264a25.5488 25.5488 0 0 1 25.088-20.6336h26.0608c82.432-38.912 152.064-99.9936 201.472-175.2576h-227.4816c-14.1312 0-25.6-11.4688-25.6-25.6s11.4688-25.6 25.6-25.6h235.3152c6.9632 0 13.2608 2.816 17.8688 7.3216 37.9392-73.3184 57.9584-157.2352 54.3232-245.6576a508.6208 508.6208 0 0 0-1.3824-21.8112 139.2128 139.2128 0 0 0-65.3824-16.1792H251.9552zM468.992 361.8304L356.2496 479.488c-4.8128 5.0688-11.52 7.8848-18.4832 7.8848h-0.6144c-7.168-0.1536-13.9776-3.3792-18.688-8.8064L259.584 410.9312a25.6 25.6 0 0 1 2.5088-36.096 25.6 25.6 0 0 1 36.096 2.5088l40.448 46.4896 93.3376-97.3824a25.6256 25.6256 0 0 1 36.1984-0.768c10.24 9.728 10.5984 25.9584 0.8192 36.1472z" fill="#F66A68" p-id="1583"></path><path d="M262.7584 489.3696c20.6848-0.8704 41.0624-2.9696 60.9792-6.2976-1.9456-1.28-3.7376-2.7136-5.2736-4.5056L259.584 410.9312a25.6 25.6 0 0 1 2.5088-36.096 25.6 25.6 0 0 1 36.096 2.5088l40.448 46.4896 93.3376-97.3824a25.6256 25.6256 0 0 1 36.1984-0.768 25.6256 25.6256 0 0 1 0.768 36.1984L359.8848 475.648a488.7808 488.7808 0 0 0 152.576-66.5088c-0.1536-1.0752-0.3072-2.1504-0.3072-3.2256 0-14.1312 11.4688-25.6 25.6-25.6h14.1312c85.248-69.12 146.6368-166.0928 170.8544-276.3776H251.9552c-77.4144 0-140.1856 62.7712-140.1856 140.1856v227.9936a492.9024 492.9024 0 0 0 150.9888 17.2544z" fill="#F67271" p-id="1584"></path><path d="M544.4608 103.936H251.9552c-77.4144 0-140.1856 62.7712-140.1856 140.1856v71.8848c22.3744 2.4576 45.1584 3.328 68.352 2.3552 155.2896-6.3488 288.9216-91.0336 364.3392-214.4256z" fill="#F67B7A" p-id="1585"></path></svg>