<svg t="1702580208490" class="icon" viewBox="0 0 1024 1024" version="1.1" xmlns="http://www.w3.org/2000/svg" p-id="1429" width="200" height="200"><path d="M535.04 881.7152c0 14.1312-11.4688 25.6-25.6 25.6s-25.6-11.4688-25.6-25.6V484.5568H150.2208v335.3088c0 55.2448 44.7488 99.9936 99.9936 99.9936h523.5712c55.2448 0 99.9936-44.7488 99.9936-99.9936V484.5568H535.04v397.1584z" fill="#F5504E" p-id="1430"></path><path d="M866.2528 257.7408H786.432c18.2784-36.608 13.9776-81.7152-14.3872-114.944-36.5568-42.9568-100.1472-49.5104-144.7424-14.9504L512 217.2416 396.6976 127.8464a105.18016 105.18016 0 0 0-144.7424 14.9504c-28.3136 33.2288-32.6144 78.336-14.3872 114.944H157.7472c-41.5232 0-75.1616 33.6384-75.1616 75.1616v26.1632c0 41.5232 33.6384 75.1616 75.1616 75.1616H483.84V290.4576c0-14.1312 11.4688-25.6 25.6-25.6s25.6 11.4688 25.6 25.6V434.2272h331.2128c41.5232 0 75.1616-33.6384 75.1616-75.1616v-26.1632c0-41.5232-33.6384-75.1616-75.1616-75.1616z m-198.144-77.312a38.7584 38.7584 0 0 1 53.2992 5.5296 38.54848 38.54848 0 0 1-3.6352 54.016l-19.8144 17.7664h-105.7792l-16.9984-5.2224 92.928-72.0896zM306.2784 239.9744a38.54848 38.54848 0 0 1-3.6352-54.016 38.67136 38.67136 0 0 1 29.5424-13.6704c8.2944 0 16.6912 2.6624 23.7568 8.1408l92.9792 72.0896-16.9984 5.2224H326.0928l-19.8144-17.7664zM873.7792 601.5488V484.5568H535.04v343.1936c143.7184-23.2448 265.5232-108.3392 338.7392-226.2016zM150.2208 727.4496c89.1392 70.8608 203.1616 111.3088 325.888 106.24 2.6112-0.1024 5.1712-0.256 7.7824-0.4096V484.5568H150.2208v242.8928z" fill="#FF5A5A" p-id="1431"></path><path d="M150.2208 608.9728c70.6048 34.2528 150.4768 52.0704 234.3424 48.64 34.1504-1.3824 67.328-6.2464 99.2768-14.2336V484.5568H150.2208v124.416zM535.04 484.5568v143.104c80.128-29.6448 150.1696-79.4624 204.1856-143.104H535.04zM535.04 434.2272h241.7152a489.59488 489.59488 0 0 0 70.8096-176.4864H786.432c18.2784-36.608 13.9776-81.7152-14.3872-114.944-36.5568-42.9568-100.1472-49.5104-144.7424-14.9504L512 217.2416 396.6976 127.8464a105.18016 105.18016 0 0 0-144.7424 14.9504c-28.3136 33.2288-32.6144 78.336-14.3872 114.944H157.7472c-41.5232 0-75.1616 33.6384-75.1616 75.1616v26.1632c0 41.5232 33.6384 75.1616 75.1616 75.1616H483.84V290.4576c0-14.1312 11.4688-25.6 25.6-25.6s25.6 11.4688 25.6 25.6V434.2272zM431.872 257.7408H326.0928l-19.8144-17.7664a38.54848 38.54848 0 0 1-3.6352-54.016 38.67136 38.67136 0 0 1 29.5424-13.6704c8.2944 0 16.6912 2.6624 23.7568 8.1408l92.9792 72.0896-17.0496 5.2224z m236.2368-77.312a38.7584 38.7584 0 0 1 53.2992 5.5296 38.54848 38.54848 0 0 1-3.6352 54.016l-19.8144 17.7664h-105.7792l-16.9984-5.2224 92.928-72.0896z" fill="#F66A68" p-id="1432"></path><path d="M535.04 395.0592a494.04928 494.04928 0 0 0 131.7376-137.3184h-74.6496l-16.9984-5.2224 92.9792-72.0896a38.70208 38.70208 0 0 1 40.8576-4.1472 487.2704 487.2704 0 0 0 20.6848-63.5392c-33.3312-12.8-72.1408-8.2944-102.3488 15.104L512 217.2416 396.6976 127.8464a105.18016 105.18016 0 0 0-144.7424 14.9504c-28.3136 33.2288-32.6144 78.336-14.3872 114.944H157.7472c-41.5232 0-75.1616 33.6384-75.1616 75.1616v26.1632c0 41.5232 33.6384 75.1616 75.1616 75.1616h310.9888c5.0688-2.5088 10.1376-5.0176 15.104-7.68V290.4576c0-14.1312 11.4688-25.6 25.6-25.6s25.6 11.4688 25.6 25.6v104.6016zM431.872 257.7408H326.0928l-19.8144-17.7664a38.54848 38.54848 0 0 1-3.6352-54.016 38.67136 38.67136 0 0 1 29.5424-13.6704c8.2944 0 16.6912 2.6624 23.7568 8.1408l92.9792 72.0896-17.0496 5.2224z" fill="#F67271" p-id="1433"></path><path d="M396.6976 127.8464a105.18016 105.18016 0 0 0-144.7424 14.9504c-28.3136 33.2288-32.6144 78.336-14.3872 114.944H157.7472c-35.2256 0-64.7168 24.2688-72.8576 56.9856a450.01216 450.01216 0 0 0 105.5744 8.1408c78.848-3.2256 152.1152-26.6752 215.04-65.1264H326.0928l-19.8144-17.7664a38.54848 38.54848 0 0 1-3.6352-54.016 38.67136 38.67136 0 0 1 29.5424-13.6704c8.2944 0 16.6912 2.6624 23.7568 8.1408l76.5952 59.392c18.5344-13.2608 35.9936-27.8528 52.2752-43.7248L396.6976 127.8464z" fill="#F67B7A" p-id="1434"></path></svg>