<svg t="1702580183900" class="icon" viewBox="0 0 1024 1024" version="1.1" xmlns="http://www.w3.org/2000/svg" p-id="1276" width="200" height="200"><path d="M389.888 235.6224h408.5248l-45.1072-82.0736c-25.4464-46.2848-83.2-63.7952-130.048-39.424L389.888 235.6224z" fill="#F66A68" p-id="1277"></path><path d="M619.7248 599.9104c0 46.7968 38.0928 84.8384 84.8384 84.8384h216.6784V515.072h-216.6784c-46.7456 0-84.8384 38.0416-84.8384 84.8384z m125.44 0a37.632 37.632 0 0 1-37.632 37.632 37.632 37.632 0 0 1-37.632-37.632 37.632 37.632 0 0 1 37.632-37.632 37.632 37.632 0 0 1 37.632 37.632z" fill="#F5504E" p-id="1278"></path><path d="M805.5808 290.0992H214.7328c-63.8976 0-115.712 51.8144-115.712 115.712v388.2496c0 63.8976 51.8144 115.712 115.712 115.712h590.848c63.8976 0 115.712-51.8144 115.712-115.712v-58.0608h-216.6784c-75.008 0-136.0384-61.0304-136.0384-136.0384s61.0304-136.0384 136.0384-136.0384h216.6784V405.8112c0-63.8976-51.8144-115.712-115.712-115.712z" fill="#F5504E" p-id="1279"></path><path d="M704.6144 735.9488c-75.008 0-136.0384-61.0304-136.0384-136.0384s61.0304-136.0384 136.0384-136.0384h216.6784V405.8112c0-63.8976-51.8144-115.712-115.712-115.712H214.7328c-63.8976 0-115.712 51.8144-115.712 115.712v268.288c82.8416 134.2976 233.7792 221.184 402.688 214.2208 128-5.2224 241.3056-63.3344 319.8464-152.3712h-116.9408z" fill="#FF5A5A" p-id="1280"></path><path d="M921.2928 545.6896v-30.6176h-216.6784c-46.7968 0-84.8384 38.0928-84.8384 84.8384s38.0928 84.8384 84.8384 84.8384h156.0064a449.85856 449.85856 0 0 0 60.672-139.0592z m-213.76 91.8528a37.632 37.632 0 0 1-37.632-37.632 37.632 37.632 0 0 1 37.632-37.632 37.632 37.632 0 0 1 37.632 37.632 37.632 37.632 0 0 1-37.632 37.632z" fill="#FF5A5A" p-id="1281"></path><path d="M704.6144 515.072c-46.7968 0-84.8384 38.0928-84.8384 84.8384 0 21.76 8.3456 41.6256 21.8624 56.6272 14.0288-8.96 27.4944-18.6368 40.3968-29.0304a37.5296 37.5296 0 0 1-12.1344-27.5968 37.632 37.632 0 0 1 66.4576-24.1664c16.7936-18.8928 32-39.168 45.4656-60.672h-77.2096z" fill="#F66A68" p-id="1282"></path><path d="M805.5808 290.0992H214.7328c-63.8976 0-115.712 51.8144-115.712 115.712v206.8992c84.3264 75.2128 196.864 119.04 318.6688 114.0736 64-2.6112 124.3136-18.4832 178.4832-44.8-17.3056-22.8352-27.648-51.2512-27.648-82.0736 0-75.008 61.0304-136.0384 136.0384-136.0384h104.8576a448.6656 448.6656 0 0 0 40.2944-165.0176c-13.568-5.632-28.4672-8.7552-44.1344-8.7552z" fill="#F66A68" p-id="1283"></path><path d="M315.392 576.4096c184.4224-7.5776 338.3808-124.8256 401.664-286.3104H214.7328c-63.8976 0-115.712 51.8144-115.712 115.712v125.3376c65.1264 31.8464 138.8544 48.4352 216.3712 45.2608zM734.5152 235.6224a449.66912 449.66912 0 0 0 13.1072-91.136c-27.648-39.424-80.7424-53.0944-124.3648-30.3616L389.888 235.6224h344.6272z" fill="#F67271" p-id="1284"></path><path d="M522.4448 290.0992h-307.712c-62.2592 0-112.9984 49.2032-115.5584 110.7968a410.36288 410.36288 0 0 0 140.3904 18.5856c112.0256-4.608 211.712-53.6576 282.88-129.3824zM565.5552 235.6224c24.1152-36.352 42.6496-76.6464 54.3232-119.7056L389.888 235.6224h175.6672z" fill="#F67B7A" p-id="1285"></path></svg>